<svg version="1" xmlns="http://www.w3.org/2000/svg" width="1957.333" height="1957.333" viewBox="0 0 1468.000000 1468.000000"><path d="M928.5 5.1c-54.4.3-189 1-299 1.4l-200 .8-16.4 16.6c-51.4 52-110.8 112-157.6 159.1C133.7 305.7 9.8 431 7.8 433.5l-2.1 2.7.6 142.7c.4 78.4 1 213.6 1.4 300.3l.6 157.8 50.1 49.6c27.6 27.4 73.3 72.7 101.6 100.8 134.8 133.8 268.9 266.6 272.8 270.1l4.3 3.8 111.2-.6c61.2-.4 196.2-1 300.2-1.4l188.9-.6 69.6-70.1c38.2-38.5 90.9-91.7 117-118.1 26.1-26.4 76.8-77.5 112.5-113.5 35.8-36 78.7-79.3 95.4-96.2l30.4-30.7-.6-70.8c-.4-38.9-.9-147.8-1.2-241.8-.3-94.1-.8-197.6-1.1-230.2l-.6-59.2-25.2-24.7c-13.8-13.6-55.3-54.7-92.1-91.3-36.9-36.6-85.2-84.6-107.5-106.6-22.3-21.9-70.4-69.6-107-106-87.6-86.9-95.1-94.2-97.5-94.7-1.1-.2-46.5-.1-101 .3zM751 291.5c14.4 3.6 20.9 7.3 31 17.4 19.2 19.4 29.9 51.7 30 90.2 0 14.4-1.4 38.8-4 67.9-.6 6.3-1.5 16.9-2 23.5-2.1 25-7.1 79-9 97.5-.5 5.2-1.4 14.9-2 21.5-1.2 13.4-2.5 27.4-4 42.7-.5 5.7-2.1 22.2-3.5 36.8-1.3 14.6-2.9 31.4-3.5 37.5-.6 6-1.5 15.5-2 21s-1.4 14.9-2 21c-5.1 54-6.2 65.7-9 95.2-5.2 56.5-6.1 63.7-8.2 70.8-1.8 5.6-3.2 8-7.3 12-3.1 3.2-6.5 5.5-9.1 6.3-5.2 1.5-17.5 1.6-22.5.1-4.7-1.4-10.3-6-13.3-10.8-4.5-7.1-5.5-12.2-8.6-42.1-.6-5.8-1.5-14.3-2-19-.5-4.7-1.6-15.3-2.5-23.5-.8-8.3-2-18.8-2.5-23.5-.5-4.7-1.4-12.9-2-18.3-.5-5.3-1.5-14.1-2-19.5-.6-5.3-1.5-13.5-2-18.2-.5-4.7-1.6-15.3-2.5-23.5-.8-8.3-2-18.8-2.5-23.5-.5-4.7-1.4-12.9-2-18.3-.5-5.3-1.5-14.1-2-19.5-.6-5.3-1.5-13.5-2-18.2-.5-4.7-1.7-15.3-2.5-23.5-.9-8.3-2-18.8-2.5-23.5-.5-4.7-1.4-12.9-2-18.3-.5-5.3-1.5-13.9-2-19-2.8-25.3-7.5-71-9-87.2-.5-6.1-1.4-15.7-2-21.5-4.9-50.8-5.9-93.9-2.7-112 6.2-34.5 16.6-54.7 34.7-66.9 9.4-6.5 15.5-8.8 30.5-12 6.4-1.4 24.5-1.2 30.5.4zm6 725.9c17.7 4.5 32.9 14.1 44.3 28.1 5.8 7.2 11.9 19.4 14.3 29 2.5 9.8 2.5 28.6 0 38-5.3 20.2-18.3 37.1-38.1 49.7-24.8 15.8-57.8 17.4-83.2 4.1-19.7-10.4-36.6-30.8-41.9-50.8-4.4-16.8-2.4-37.7 5.2-54.2 8.1-17.4 26.8-33.9 46.4-40.8 5.9-2.1 15.9-4.4 21-4.9 7.5-.7 26.2.4 32 1.8z"/></svg>